<svg width="2002" height="1402" viewBox="0 0 2002 1402" fill="none" xmlns="http://www.w3.org/2000/svg">
<rect x="1" y="1" width="100" height="100" stroke="#FF5582" stroke-width="2"/>
<rect x="101" y="1" width="100" height="100" stroke="#FF5582" stroke-width="2"/>
<rect x="201" y="1" width="100" height="100" stroke="#FF5582" stroke-width="2"/>
<rect x="301" y="1" width="100" height="100" stroke="#FF5582" stroke-width="2"/>
<rect x="1" y="101" width="100" height="100" stroke="#FF5582" stroke-width="2"/>
<rect x="101" y="101" width="100" height="100" stroke="#FF5582" stroke-width="2"/>
<rect x="201" y="101" width="100" height="100" stroke="#FF5582" stroke-width="2"/>
<rect x="301" y="101" width="100" height="100" stroke="#FF5582" stroke-width="2"/>
<rect x="1" y="201" width="100" height="100" stroke="#FF5582" stroke-width="2"/>
<rect x="101" y="201" width="100" height="100" stroke="#FF5582" stroke-width="2"/>
<rect x="201" y="201" width="100" height="100" stroke="#FF5582" stroke-width="2"/>
<rect x="301" y="201" width="100" height="100" stroke="#FF5582" stroke-width="2"/>
<rect x="1" y="301" width="100" height="100" stroke="#FF5582" stroke-width="2"/>
<rect x="101" y="301" width="100" height="100" stroke="#FF5582" stroke-width="2"/>
<rect x="201" y="301" width="100" height="100" stroke="#FF5582" stroke-width="2"/>
<rect x="301" y="301" width="100" height="100" stroke="#FF5582" stroke-width="2"/>
<rect x="1" y="401" width="100" height="100" stroke="#FF5582" stroke-width="2"/>
<rect x="101" y="401" width="100" height="100" stroke="#FF5582" stroke-width="2"/>
<rect x="201" y="401" width="100" height="100" stroke="#FF5582" stroke-width="2"/>
<rect x="301" y="401" width="100" height="100" stroke="#FF5582" stroke-width="2"/>
<rect x="1" y="501" width="100" height="100" stroke="#FF5582" stroke-width="2"/>
<rect x="101" y="501" width="100" height="100" stroke="#FF5582" stroke-width="2"/>
<rect x="201" y="501" width="100" height="100" stroke="#FF5582" stroke-width="2"/>
<rect x="301" y="501" width="100" height="100" stroke="#FF5582" stroke-width="2"/>
<rect x="1" y="601" width="100" height="100" stroke="#FF5582" stroke-width="2"/>
<rect x="101" y="601" width="100" height="100" stroke="#FF5582" stroke-width="2"/>
<rect x="201" y="601" width="100" height="100" stroke="#FF5582" stroke-width="2"/>
<rect x="301" y="601" width="100" height="100" stroke="#FF5582" stroke-width="2"/>
<rect x="1" y="701" width="100" height="100" stroke="#FF5582" stroke-width="2"/>
<rect x="101" y="701" width="100" height="100" stroke="#FF5582" stroke-width="2"/>
<rect x="201" y="701" width="100" height="100" stroke="#FF5582" stroke-width="2"/>
<rect x="301" y="701" width="100" height="100" stroke="#FF5582" stroke-width="2"/>
<rect x="1" y="801" width="100" height="100" stroke="#FF5582" stroke-width="2"/>
<rect x="101" y="801" width="100" height="100" stroke="#FF5582" stroke-width="2"/>
<rect x="201" y="801" width="100" height="100" stroke="#FF5582" stroke-width="2"/>
<rect x="301" y="801" width="100" height="100" stroke="#FF5582" stroke-width="2"/>
<rect x="1" y="901" width="100" height="100" stroke="#FF5582" stroke-width="2"/>
<rect x="101" y="901" width="100" height="100" stroke="#FF5582" stroke-width="2"/>
<rect x="201" y="901" width="100" height="100" stroke="#FF5582" stroke-width="2"/>
<rect x="301" y="901" width="100" height="100" stroke="#FF5582" stroke-width="2"/>
<rect x="1" y="1001" width="100" height="100" stroke="#FF5582" stroke-width="2"/>
<rect x="101" y="1001" width="100" height="100" stroke="#FF5582" stroke-width="2"/>
<rect x="201" y="1001" width="100" height="100" stroke="#FF5582" stroke-width="2"/>
<rect x="301" y="1001" width="100" height="100" stroke="#FF5582" stroke-width="2"/>
<rect x="1" y="1101" width="100" height="100" stroke="#FF5582" stroke-width="2"/>
<rect x="101" y="1101" width="100" height="100" stroke="#FF5582" stroke-width="2"/>
<rect x="201" y="1101" width="100" height="100" stroke="#FF5582" stroke-width="2"/>
<rect x="301" y="1101" width="100" height="100" stroke="#FF5582" stroke-width="2"/>
<rect x="1" y="1201" width="100" height="100" stroke="#FF5582" stroke-width="2"/>
<rect x="101" y="1201" width="100" height="100" stroke="#FF5582" stroke-width="2"/>
<rect x="201" y="1201" width="100" height="100" stroke="#FF5582" stroke-width="2"/>
<rect x="301" y="1201" width="100" height="100" stroke="#FF5582" stroke-width="2"/>
<rect x="1" y="1301" width="100" height="100" stroke="#FF5582" stroke-width="2"/>
<rect x="101" y="1301" width="100" height="100" stroke="#FF5582" stroke-width="2"/>
<rect x="201" y="1301" width="100" height="100" stroke="#FF5582" stroke-width="2"/>
<rect x="301" y="1301" width="100" height="100" stroke="#FF5582" stroke-width="2"/>
<rect x="401" y="1" width="100" height="100" stroke="#FF5582" stroke-width="2"/>
<rect x="501" y="1" width="100" height="100" stroke="#FF5582" stroke-width="2"/>
<rect x="601" y="1" width="100" height="100" stroke="#FF5582" stroke-width="2"/>
<rect x="701" y="1" width="100" height="100" stroke="#FF5582" stroke-width="2"/>
<rect x="401" y="101" width="100" height="100" stroke="#FF5582" stroke-width="2"/>
<rect x="501" y="101" width="100" height="100" stroke="#FF5582" stroke-width="2"/>
<rect x="601" y="101" width="100" height="100" stroke="#FF5582" stroke-width="2"/>
<rect x="701" y="101" width="100" height="100" stroke="#FF5582" stroke-width="2"/>
<rect x="401" y="201" width="100" height="100" stroke="#FF5582" stroke-width="2"/>
<rect x="501" y="201" width="100" height="100" stroke="#FF5582" stroke-width="2"/>
<rect x="601" y="201" width="100" height="100" stroke="#FF5582" stroke-width="2"/>
<rect x="701" y="201" width="100" height="100" stroke="#FF5582" stroke-width="2"/>
<rect x="401" y="301" width="100" height="100" stroke="#FF5582" stroke-width="2"/>
<rect x="501" y="301" width="100" height="100" stroke="#FF5582" stroke-width="2"/>
<rect x="601" y="301" width="100" height="100" stroke="#FF5582" stroke-width="2"/>
<rect x="701" y="301" width="100" height="100" stroke="#FF5582" stroke-width="2"/>
<rect x="401" y="401" width="100" height="100" stroke="#FF5582" stroke-width="2"/>
<rect x="501" y="401" width="100" height="100" stroke="#FF5582" stroke-width="2"/>
<rect x="601" y="401" width="100" height="100" stroke="#FF5582" stroke-width="2"/>
<rect x="701" y="401" width="100" height="100" stroke="#FF5582" stroke-width="2"/>
<rect x="401" y="501" width="100" height="100" stroke="#FF5582" stroke-width="2"/>
<rect x="501" y="501" width="100" height="100" stroke="#FF5582" stroke-width="2"/>
<rect x="601" y="501" width="100" height="100" stroke="#FF5582" stroke-width="2"/>
<rect x="701" y="501" width="100" height="100" stroke="#FF5582" stroke-width="2"/>
<rect x="401" y="601" width="100" height="100" stroke="#FF5582" stroke-width="2"/>
<rect x="501" y="601" width="100" height="100" stroke="#FF5582" stroke-width="2"/>
<rect x="601" y="601" width="100" height="100" stroke="#FF5582" stroke-width="2"/>
<rect x="701" y="601" width="100" height="100" stroke="#FF5582" stroke-width="2"/>
<rect x="401" y="701" width="100" height="100" stroke="#FF5582" stroke-width="2"/>
<rect x="501" y="701" width="100" height="100" stroke="#FF5582" stroke-width="2"/>
<rect x="601" y="701" width="100" height="100" stroke="#FF5582" stroke-width="2"/>
<rect x="701" y="701" width="100" height="100" stroke="#FF5582" stroke-width="2"/>
<rect x="401" y="801" width="100" height="100" stroke="#FF5582" stroke-width="2"/>
<rect x="501" y="801" width="100" height="100" stroke="#FF5582" stroke-width="2"/>
<rect x="601" y="801" width="100" height="100" stroke="#FF5582" stroke-width="2"/>
<rect x="701" y="801" width="100" height="100" stroke="#FF5582" stroke-width="2"/>
<rect x="401" y="901" width="100" height="100" stroke="#FF5582" stroke-width="2"/>
<rect x="501" y="901" width="100" height="100" stroke="#FF5582" stroke-width="2"/>
<rect x="601" y="901" width="100" height="100" stroke="#FF5582" stroke-width="2"/>
<rect x="701" y="901" width="100" height="100" stroke="#FF5582" stroke-width="2"/>
<rect x="401" y="1001" width="100" height="100" stroke="#FF5582" stroke-width="2"/>
<rect x="501" y="1001" width="100" height="100" stroke="#FF5582" stroke-width="2"/>
<rect x="601" y="1001" width="100" height="100" stroke="#FF5582" stroke-width="2"/>
<rect x="701" y="1001" width="100" height="100" stroke="#FF5582" stroke-width="2"/>
<rect x="401" y="1101" width="100" height="100" stroke="#FF5582" stroke-width="2"/>
<rect x="501" y="1101" width="100" height="100" stroke="#FF5582" stroke-width="2"/>
<rect x="601" y="1101" width="100" height="100" stroke="#FF5582" stroke-width="2"/>
<rect x="701" y="1101" width="100" height="100" stroke="#FF5582" stroke-width="2"/>
<rect x="401" y="1201" width="100" height="100" stroke="#FF5582" stroke-width="2"/>
<rect x="501" y="1201" width="100" height="100" stroke="#FF5582" stroke-width="2"/>
<rect x="601" y="1201" width="100" height="100" stroke="#FF5582" stroke-width="2"/>
<rect x="701" y="1201" width="100" height="100" stroke="#FF5582" stroke-width="2"/>
<rect x="401" y="1301" width="100" height="100" stroke="#FF5582" stroke-width="2"/>
<rect x="501" y="1301" width="100" height="100" stroke="#FF5582" stroke-width="2"/>
<rect x="601" y="1301" width="100" height="100" stroke="#FF5582" stroke-width="2"/>
<rect x="701" y="1301" width="100" height="100" stroke="#FF5582" stroke-width="2"/>
<rect x="801" y="1" width="100" height="100" stroke="#FF5582" stroke-width="2"/>
<rect x="901" y="1" width="100" height="100" stroke="#FF5582" stroke-width="2"/>
<rect x="1001" y="1" width="100" height="100" stroke="#FF5582" stroke-width="2"/>
<rect x="1101" y="1" width="100" height="100" stroke="#FF5582" stroke-width="2"/>
<rect x="801" y="101" width="100" height="100" stroke="#FF5582" stroke-width="2"/>
<rect x="901" y="101" width="100" height="100" stroke="#FF5582" stroke-width="2"/>
<rect x="1001" y="101" width="100" height="100" stroke="#FF5582" stroke-width="2"/>
<rect x="1101" y="101" width="100" height="100" stroke="#FF5582" stroke-width="2"/>
<rect x="801" y="201" width="100" height="100" stroke="#FF5582" stroke-width="2"/>
<rect x="901" y="201" width="100" height="100" stroke="#FF5582" stroke-width="2"/>
<rect x="1001" y="201" width="100" height="100" stroke="#FF5582" stroke-width="2"/>
<rect x="1101" y="201" width="100" height="100" stroke="#FF5582" stroke-width="2"/>
<rect x="801" y="301" width="100" height="100" stroke="#FF5582" stroke-width="2"/>
<rect x="901" y="301" width="100" height="100" stroke="#FF5582" stroke-width="2"/>
<rect x="1001" y="301" width="100" height="100" stroke="#FF5582" stroke-width="2"/>
<rect x="1101" y="301" width="100" height="100" stroke="#FF5582" stroke-width="2"/>
<rect x="801" y="401" width="100" height="100" stroke="#FF5582" stroke-width="2"/>
<rect x="901" y="401" width="100" height="100" stroke="#FF5582" stroke-width="2"/>
<rect x="1001" y="401" width="100" height="100" stroke="#FF5582" stroke-width="2"/>
<rect x="1101" y="401" width="100" height="100" stroke="#FF5582" stroke-width="2"/>
<rect x="801" y="501" width="100" height="100" stroke="#FF5582" stroke-width="2"/>
<rect x="901" y="501" width="100" height="100" stroke="#FF5582" stroke-width="2"/>
<rect x="1001" y="501" width="100" height="100" stroke="#FF5582" stroke-width="2"/>
<rect x="1101" y="501" width="100" height="100" stroke="#FF5582" stroke-width="2"/>
<rect x="801" y="601" width="100" height="100" stroke="#FF5582" stroke-width="2"/>
<rect x="901" y="601" width="100" height="100" stroke="#FF5582" stroke-width="2"/>
<rect x="1001" y="601" width="100" height="100" stroke="#FF5582" stroke-width="2"/>
<rect x="1101" y="601" width="100" height="100" stroke="#FF5582" stroke-width="2"/>
<rect x="801" y="701" width="100" height="100" stroke="#FF5582" stroke-width="2"/>
<rect x="901" y="701" width="100" height="100" stroke="#FF5582" stroke-width="2"/>
<rect x="1001" y="701" width="100" height="100" stroke="#FF5582" stroke-width="2"/>
<rect x="1101" y="701" width="100" height="100" stroke="#FF5582" stroke-width="2"/>
<rect x="801" y="801" width="100" height="100" stroke="#FF5582" stroke-width="2"/>
<rect x="901" y="801" width="100" height="100" stroke="#FF5582" stroke-width="2"/>
<rect x="1001" y="801" width="100" height="100" stroke="#FF5582" stroke-width="2"/>
<rect x="1101" y="801" width="100" height="100" stroke="#FF5582" stroke-width="2"/>
<rect x="801" y="901" width="100" height="100" stroke="#FF5582" stroke-width="2"/>
<rect x="901" y="901" width="100" height="100" stroke="#FF5582" stroke-width="2"/>
<rect x="1001" y="901" width="100" height="100" stroke="#FF5582" stroke-width="2"/>
<rect x="1101" y="901" width="100" height="100" stroke="#FF5582" stroke-width="2"/>
<rect x="801" y="1001" width="100" height="100" stroke="#FF5582" stroke-width="2"/>
<rect x="901" y="1001" width="100" height="100" stroke="#FF5582" stroke-width="2"/>
<rect x="1001" y="1001" width="100" height="100" stroke="#FF5582" stroke-width="2"/>
<rect x="1101" y="1001" width="100" height="100" stroke="#FF5582" stroke-width="2"/>
<rect x="801" y="1101" width="100" height="100" stroke="#FF5582" stroke-width="2"/>
<rect x="901" y="1101" width="100" height="100" stroke="#FF5582" stroke-width="2"/>
<rect x="1001" y="1101" width="100" height="100" stroke="#FF5582" stroke-width="2"/>
<rect x="1101" y="1101" width="100" height="100" stroke="#FF5582" stroke-width="2"/>
<rect x="801" y="1201" width="100" height="100" stroke="#FF5582" stroke-width="2"/>
<rect x="901" y="1201" width="100" height="100" stroke="#FF5582" stroke-width="2"/>
<rect x="1001" y="1201" width="100" height="100" stroke="#FF5582" stroke-width="2"/>
<rect x="1101" y="1201" width="100" height="100" stroke="#FF5582" stroke-width="2"/>
<rect x="801" y="1301" width="100" height="100" stroke="#FF5582" stroke-width="2"/>
<rect x="901" y="1301" width="100" height="100" stroke="#FF5582" stroke-width="2"/>
<rect x="1001" y="1301" width="100" height="100" stroke="#FF5582" stroke-width="2"/>
<rect x="1101" y="1301" width="100" height="100" stroke="#FF5582" stroke-width="2"/>
<rect x="1201" y="1" width="100" height="100" stroke="#FF5582" stroke-width="2"/>
<rect x="1301" y="1" width="100" height="100" stroke="#FF5582" stroke-width="2"/>
<rect x="1401" y="1" width="100" height="100" stroke="#FF5582" stroke-width="2"/>
<rect x="1501" y="1" width="100" height="100" stroke="#FF5582" stroke-width="2"/>
<rect x="1201" y="101" width="100" height="100" stroke="#FF5582" stroke-width="2"/>
<rect x="1301" y="101" width="100" height="100" stroke="#FF5582" stroke-width="2"/>
<rect x="1401" y="101" width="100" height="100" stroke="#FF5582" stroke-width="2"/>
<rect x="1501" y="101" width="100" height="100" stroke="#FF5582" stroke-width="2"/>
<rect x="1201" y="201" width="100" height="100" stroke="#FF5582" stroke-width="2"/>
<rect x="1301" y="201" width="100" height="100" stroke="#FF5582" stroke-width="2"/>
<rect x="1401" y="201" width="100" height="100" stroke="#FF5582" stroke-width="2"/>
<rect x="1501" y="201" width="100" height="100" stroke="#FF5582" stroke-width="2"/>
<rect x="1201" y="301" width="100" height="100" stroke="#FF5582" stroke-width="2"/>
<rect x="1301" y="301" width="100" height="100" stroke="#FF5582" stroke-width="2"/>
<rect x="1401" y="301" width="100" height="100" stroke="#FF5582" stroke-width="2"/>
<rect x="1501" y="301" width="100" height="100" stroke="#FF5582" stroke-width="2"/>
<rect x="1201" y="401" width="100" height="100" stroke="#FF5582" stroke-width="2"/>
<rect x="1301" y="401" width="100" height="100" stroke="#FF5582" stroke-width="2"/>
<rect x="1401" y="401" width="100" height="100" stroke="#FF5582" stroke-width="2"/>
<rect x="1501" y="401" width="100" height="100" stroke="#FF5582" stroke-width="2"/>
<rect x="1201" y="501" width="100" height="100" stroke="#FF5582" stroke-width="2"/>
<rect x="1301" y="501" width="100" height="100" stroke="#FF5582" stroke-width="2"/>
<rect x="1401" y="501" width="100" height="100" stroke="#FF5582" stroke-width="2"/>
<rect x="1501" y="501" width="100" height="100" stroke="#FF5582" stroke-width="2"/>
<rect x="1201" y="601" width="100" height="100" stroke="#FF5582" stroke-width="2"/>
<rect x="1301" y="601" width="100" height="100" stroke="#FF5582" stroke-width="2"/>
<rect x="1401" y="601" width="100" height="100" stroke="#FF5582" stroke-width="2"/>
<rect x="1501" y="601" width="100" height="100" stroke="#FF5582" stroke-width="2"/>
<rect x="1201" y="701" width="100" height="100" stroke="#FF5582" stroke-width="2"/>
<rect x="1301" y="701" width="100" height="100" stroke="#FF5582" stroke-width="2"/>
<rect x="1401" y="701" width="100" height="100" stroke="#FF5582" stroke-width="2"/>
<rect x="1501" y="701" width="100" height="100" stroke="#FF5582" stroke-width="2"/>
<rect x="1201" y="801" width="100" height="100" stroke="#FF5582" stroke-width="2"/>
<rect x="1301" y="801" width="100" height="100" stroke="#FF5582" stroke-width="2"/>
<rect x="1401" y="801" width="100" height="100" stroke="#FF5582" stroke-width="2"/>
<rect x="1501" y="801" width="100" height="100" stroke="#FF5582" stroke-width="2"/>
<rect x="1201" y="901" width="100" height="100" stroke="#FF5582" stroke-width="2"/>
<rect x="1301" y="901" width="100" height="100" stroke="#FF5582" stroke-width="2"/>
<rect x="1401" y="901" width="100" height="100" stroke="#FF5582" stroke-width="2"/>
<rect x="1501" y="901" width="100" height="100" stroke="#FF5582" stroke-width="2"/>
<rect x="1201" y="1001" width="100" height="100" stroke="#FF5582" stroke-width="2"/>
<rect x="1301" y="1001" width="100" height="100" stroke="#FF5582" stroke-width="2"/>
<rect x="1401" y="1001" width="100" height="100" stroke="#FF5582" stroke-width="2"/>
<rect x="1501" y="1001" width="100" height="100" stroke="#FF5582" stroke-width="2"/>
<rect x="1201" y="1101" width="100" height="100" stroke="#FF5582" stroke-width="2"/>
<rect x="1301" y="1101" width="100" height="100" stroke="#FF5582" stroke-width="2"/>
<rect x="1401" y="1101" width="100" height="100" stroke="#FF5582" stroke-width="2"/>
<rect x="1501" y="1101" width="100" height="100" stroke="#FF5582" stroke-width="2"/>
<rect x="1201" y="1201" width="100" height="100" stroke="#FF5582" stroke-width="2"/>
<rect x="1301" y="1201" width="100" height="100" stroke="#FF5582" stroke-width="2"/>
<rect x="1401" y="1201" width="100" height="100" stroke="#FF5582" stroke-width="2"/>
<rect x="1501" y="1201" width="100" height="100" stroke="#FF5582" stroke-width="2"/>
<rect x="1201" y="1301" width="100" height="100" stroke="#FF5582" stroke-width="2"/>
<rect x="1301" y="1301" width="100" height="100" stroke="#FF5582" stroke-width="2"/>
<rect x="1401" y="1301" width="100" height="100" stroke="#FF5582" stroke-width="2"/>
<rect x="1501" y="1301" width="100" height="100" stroke="#FF5582" stroke-width="2"/>
<rect x="1601" y="1" width="100" height="100" stroke="#FF5582" stroke-width="2"/>
<rect x="1701" y="1" width="100" height="100" stroke="#FF5582" stroke-width="2"/>
<rect x="1801" y="1" width="100" height="100" stroke="#FF5582" stroke-width="2"/>
<rect x="1901" y="1" width="100" height="100" stroke="#FF5582" stroke-width="2"/>
<rect x="1601" y="101" width="100" height="100" stroke="#FF5582" stroke-width="2"/>
<rect x="1701" y="101" width="100" height="100" stroke="#FF5582" stroke-width="2"/>
<rect x="1801" y="101" width="100" height="100" stroke="#FF5582" stroke-width="2"/>
<rect x="1901" y="101" width="100" height="100" stroke="#FF5582" stroke-width="2"/>
<rect x="1601" y="201" width="100" height="100" stroke="#FF5582" stroke-width="2"/>
<rect x="1701" y="201" width="100" height="100" stroke="#FF5582" stroke-width="2"/>
<rect x="1801" y="201" width="100" height="100" stroke="#FF5582" stroke-width="2"/>
<rect x="1901" y="201" width="100" height="100" stroke="#FF5582" stroke-width="2"/>
<rect x="1601" y="301" width="100" height="100" stroke="#FF5582" stroke-width="2"/>
<rect x="1701" y="301" width="100" height="100" stroke="#FF5582" stroke-width="2"/>
<rect x="1801" y="301" width="100" height="100" stroke="#FF5582" stroke-width="2"/>
<rect x="1901" y="301" width="100" height="100" stroke="#FF5582" stroke-width="2"/>
<rect x="1601" y="401" width="100" height="100" stroke="#FF5582" stroke-width="2"/>
<rect x="1701" y="401" width="100" height="100" stroke="#FF5582" stroke-width="2"/>
<rect x="1801" y="401" width="100" height="100" stroke="#FF5582" stroke-width="2"/>
<rect x="1901" y="401" width="100" height="100" stroke="#FF5582" stroke-width="2"/>
<rect x="1601" y="501" width="100" height="100" stroke="#FF5582" stroke-width="2"/>
<rect x="1701" y="501" width="100" height="100" stroke="#FF5582" stroke-width="2"/>
<rect x="1801" y="501" width="100" height="100" stroke="#FF5582" stroke-width="2"/>
<rect x="1901" y="501" width="100" height="100" stroke="#FF5582" stroke-width="2"/>
<rect x="1601" y="601" width="100" height="100" stroke="#FF5582" stroke-width="2"/>
<rect x="1701" y="601" width="100" height="100" stroke="#FF5582" stroke-width="2"/>
<rect x="1801" y="601" width="100" height="100" stroke="#FF5582" stroke-width="2"/>
<rect x="1901" y="601" width="100" height="100" stroke="#FF5582" stroke-width="2"/>
<rect x="1601" y="701" width="100" height="100" stroke="#FF5582" stroke-width="2"/>
<rect x="1701" y="701" width="100" height="100" stroke="#FF5582" stroke-width="2"/>
<rect x="1801" y="701" width="100" height="100" stroke="#FF5582" stroke-width="2"/>
<rect x="1901" y="701" width="100" height="100" stroke="#FF5582" stroke-width="2"/>
<rect x="1601" y="801" width="100" height="100" stroke="#FF5582" stroke-width="2"/>
<rect x="1701" y="801" width="100" height="100" stroke="#FF5582" stroke-width="2"/>
<rect x="1801" y="801" width="100" height="100" stroke="#FF5582" stroke-width="2"/>
<rect x="1901" y="801" width="100" height="100" stroke="#FF5582" stroke-width="2"/>
<rect x="1601" y="901" width="100" height="100" stroke="#FF5582" stroke-width="2"/>
<rect x="1701" y="901" width="100" height="100" stroke="#FF5582" stroke-width="2"/>
<rect x="1801" y="901" width="100" height="100" stroke="#FF5582" stroke-width="2"/>
<rect x="1901" y="901" width="100" height="100" stroke="#FF5582" stroke-width="2"/>
<rect x="1601" y="1001" width="100" height="100" stroke="#FF5582" stroke-width="2"/>
<rect x="1701" y="1001" width="100" height="100" stroke="#FF5582" stroke-width="2"/>
<rect x="1801" y="1001" width="100" height="100" stroke="#FF5582" stroke-width="2"/>
<rect x="1901" y="1001" width="100" height="100" stroke="#FF5582" stroke-width="2"/>
<rect x="1601" y="1101" width="100" height="100" stroke="#FF5582" stroke-width="2"/>
<rect x="1701" y="1101" width="100" height="100" stroke="#FF5582" stroke-width="2"/>
<rect x="1801" y="1101" width="100" height="100" stroke="#FF5582" stroke-width="2"/>
<rect x="1901" y="1101" width="100" height="100" stroke="#FF5582" stroke-width="2"/>
<rect x="1601" y="1201" width="100" height="100" stroke="#FF5582" stroke-width="2"/>
<rect x="1701" y="1201" width="100" height="100" stroke="#FF5582" stroke-width="2"/>
<rect x="1801" y="1201" width="100" height="100" stroke="#FF5582" stroke-width="2"/>
<rect x="1901" y="1201" width="100" height="100" stroke="#FF5582" stroke-width="2"/>
<rect x="1601" y="1301" width="100" height="100" stroke="#FF5582" stroke-width="2"/>
<rect x="1701" y="1301" width="100" height="100" stroke="#FF5582" stroke-width="2"/>
<rect x="1801" y="1301" width="100" height="100" stroke="#FF5582" stroke-width="2"/>
<rect x="1901" y="1301" width="100" height="100" stroke="#FF5582" stroke-width="2"/>
</svg>
