<svg width="310" height="284" viewBox="0 0 310 284" fill="none" xmlns="http://www.w3.org/2000/svg">
<path fill-rule="evenodd" clip-rule="evenodd" d="M157.405 115.425C150.884 114.855 144.357 116.458 138.936 119.962C133.515 123.466 129.536 128.654 127.677 134.641C125.817 140.629 126.193 147.046 128.739 152.8C131.286 158.553 135.845 163.286 141.641 166.193C147.437 169.1 154.111 170.001 160.526 168.742C166.94 167.484 172.698 164.143 176.819 159.29C180.94 154.436 183.169 148.371 183.126 142.126C183.083 135.882 180.77 129.845 176.582 125.044C174.207 122.315 171.291 120.061 168 118.411C164.709 116.76 161.109 115.745 157.405 115.425ZM201.664 1.01069C195.142 0.440171 188.615 2.04347 183.194 5.54739C177.773 9.05132 173.794 14.2391 171.935 20.2268C170.076 26.2145 170.451 32.6317 172.998 38.385C175.544 44.1382 180.104 48.8717 185.9 51.7787C191.696 54.6858 198.369 55.5866 204.784 54.3278C211.198 53.0689 216.957 49.7283 221.078 44.875C225.199 40.0217 227.427 33.956 227.384 27.7115C227.341 21.467 225.028 15.43 220.84 10.629C218.466 7.90014 215.55 5.64561 212.259 3.99497C208.968 2.34433 205.367 1.33013 201.664 1.01069ZM31.3622 136.085C24.838 135.512 18.3074 137.115 12.8832 140.619C7.45894 144.122 3.47677 149.312 1.61522 155.301C-0.246319 161.291 0.127948 167.711 2.67426 173.468C5.22056 179.224 9.78134 183.96 15.5794 186.869C21.3775 189.778 28.0541 190.68 34.4715 189.422C40.8889 188.163 46.65 184.821 50.7731 179.966C54.8962 175.111 57.1261 169.043 57.0829 162.795C57.0397 156.548 54.7261 150.509 50.5362 145.706C48.1625 142.977 45.2465 140.722 41.956 139.071C38.6655 137.42 35.0652 136.405 31.3622 136.085ZM239.192 209.183C232.671 208.612 226.144 210.215 220.723 213.719C215.302 217.223 211.323 222.411 209.464 228.399C207.604 234.386 207.98 240.804 210.526 246.557C213.073 252.31 217.632 257.044 223.428 259.951C229.224 262.858 235.898 263.759 242.313 262.5C248.727 261.241 254.485 257.9 258.606 253.047C262.727 248.194 264.956 242.128 264.913 235.883C264.87 229.639 262.557 223.602 258.369 218.801C255.995 216.072 253.078 213.817 249.787 212.167C246.496 210.516 242.896 209.502 239.192 209.183ZM283.448 94.7654C276.927 94.1949 270.4 95.7982 264.979 99.3021C259.558 102.806 255.579 107.994 253.72 113.982C251.86 119.969 252.236 126.386 254.782 132.14C257.329 137.893 261.888 142.626 267.684 145.533C273.48 148.441 280.154 149.341 286.569 148.083C292.983 146.824 298.741 143.483 302.862 138.63C306.983 133.776 309.212 127.711 309.169 121.466C309.126 115.222 306.813 109.185 302.625 104.384C300.25 101.655 297.334 99.4012 294.043 97.7506C290.752 96.1001 287.152 95.0856 283.448 94.7654ZM75.6205 21.6706C69.0989 21.1001 62.5717 22.7034 57.1508 26.2073C51.73 29.7112 47.751 34.899 45.8917 40.8867C44.0325 46.8744 44.408 53.2916 46.9544 59.0448C49.5008 64.7981 54.0604 69.5315 59.8564 72.4386C65.6524 75.3457 72.3262 76.2465 78.7407 74.9877C85.1552 73.7288 90.9135 70.3881 95.0345 65.5348C99.1555 60.6815 101.384 54.6159 101.341 48.3714C101.298 42.1269 98.9851 36.0898 94.7972 31.2889C92.4229 28.56 89.5065 26.3055 86.2155 24.6548C82.9245 23.0042 79.3238 21.99 75.6205 21.6706ZM113.147 229.84C106.623 229.267 100.092 230.869 94.668 234.373C89.2438 237.877 85.2616 243.066 83.4001 249.056C81.5385 255.046 81.9128 261.466 84.4591 267.222C87.0054 272.979 91.5662 277.715 97.3643 280.624C103.162 283.533 109.839 284.435 116.256 283.176C122.674 281.918 128.435 278.576 132.558 273.721C136.681 268.866 138.911 262.797 138.868 256.55C138.825 250.303 136.511 244.263 132.321 239.46C129.947 236.732 127.031 234.478 123.74 232.827C120.45 231.176 116.85 230.161 113.147 229.84ZM163.232 106.266C153.304 104.159 142.905 105.86 134.28 111.001L101.574 73.5082C108.446 66.3582 112.094 56.9179 111.729 47.2256L136.925 43.0931L162.126 38.9609C165.189 48.2162 171.939 55.9549 180.926 60.5115L163.232 106.266ZM191.779 131.228C188.712 121.972 181.961 114.233 172.975 109.672L190.662 63.9352C200.59 66.0424 210.989 64.3418 219.614 59.2007L252.317 96.6909C245.445 103.84 241.797 113.279 242.161 122.971L191.768 131.236L191.779 131.228ZM183.359 167.263C190.231 160.113 193.879 150.673 193.514 140.98L243.911 132.72C246.972 141.975 253.722 149.713 262.708 154.268L253.844 177.155L253.745 177.44L245.008 200.032C235.084 197.925 224.689 199.622 216.065 204.756L183.359 167.263ZM146.402 178.347C156.33 180.454 166.729 178.754 175.353 173.613L208.059 211.105C201.188 218.257 197.542 227.698 197.907 237.391L172.708 241.521L147.507 245.653C144.44 236.401 137.691 228.665 128.71 224.105L146.406 178.357L146.402 178.347ZM117.857 153.389C120.918 162.647 127.671 170.388 136.661 174.944L118.971 220.678C109.043 218.571 98.6441 220.272 90.0196 225.413L57.3159 187.923C64.1882 180.774 67.8363 171.335 67.4727 161.643L117.87 153.383L117.857 153.389ZM65.7247 151.896C62.6579 142.643 55.9085 134.906 46.9256 130.345L55.7761 107.469C55.8121 107.376 55.846 107.28 55.875 107.184L64.6141 84.5946C74.5434 86.7019 84.9435 85.0006 93.5683 79.858L126.274 117.351C119.402 124.501 115.755 133.941 116.12 143.633L65.7247 151.896Z" fill="#FF461F"/>
</svg>
