<svg width="778" height="965" viewBox="0 0 778 965" fill="none" xmlns="http://www.w3.org/2000/svg">
<path d="M447.035 301.527C456.827 301.527 464.115 308.264 466.085 318.882C473.549 376.824 481.186 422.606 492.027 459.049C502.879 495.526 516.978 522.777 537.445 543.555C578.332 585.061 644.142 600.202 757.965 612.881C768.887 614.456 776 622.186 776 632.053C776 641.978 768.831 650.051 758.02 651.216L758.013 651.217C644.16 663.896 578.337 679.036 537.445 720.549C516.978 741.326 502.879 768.578 492.027 805.056C481.186 841.499 473.549 887.279 466.085 945.221C464.105 955.897 456.778 963 447.035 963C437.428 963 430.202 956.102 428.485 945.744L428.408 945.249C420.522 887.395 412.621 841.944 401.631 805.876C390.633 769.78 376.505 742.955 356.091 722.445C335.675 701.934 309.123 687.892 273.544 677.098C237.991 666.311 193.3 658.732 136.517 651.222L136.489 651.218L136.461 651.215L135.937 651.155C124.993 649.791 118.07 641.801 118.07 632.053C118.07 622.209 125.156 614.466 136.506 612.883C250.132 600.204 315.946 585.063 356.887 543.556C377.38 522.779 391.518 495.528 402.403 459.05C413.28 422.601 420.943 376.811 428.408 318.856C429.965 308.281 437.223 301.527 447.035 301.527ZM161.909 173.764C168.791 173.764 173.48 178.407 174.218 185.097L174.22 185.114L174.223 185.131C177.899 213.87 180.934 235.812 185.248 252.743C189.568 269.698 195.222 281.861 204.285 290.896C213.345 299.927 225.604 305.626 242.706 310.082C259.781 314.531 281.919 317.797 310.889 321.81C317.652 322.951 322.236 327.746 322.236 334.219C322.236 337.754 321.047 340.53 319.107 342.57C317.147 344.632 314.312 346.053 310.87 346.631L310.846 346.635L310.821 346.64C281.845 352.237 259.736 356.459 242.712 361.409C225.673 366.363 213.476 372.112 204.458 380.909C195.422 389.724 189.775 401.404 185.431 417.815C181.095 434.195 178.005 455.506 174.224 483.716L174.218 483.763C173.845 487.139 172.466 489.839 170.402 491.695C168.34 493.549 165.469 494.673 161.909 494.673C158.589 494.673 155.843 493.569 153.833 491.636C151.815 489.694 150.403 486.781 150.021 482.938L150.019 482.914L150.016 482.892L149.371 477.68C146.178 452.01 143.353 432.145 139.369 416.583C135.113 399.956 129.482 388.023 120.476 379.072C111.478 370.131 99.3106 364.366 82.3896 359.665C65.4865 354.969 43.6048 351.277 15.04 346.629L14.9912 346.621L14.1826 346.5C10.2107 345.846 7.24739 344.523 5.2627 342.651C3.19635 340.703 2.00007 337.98 2 334.219C2 327.819 6.51228 323.349 13.4561 321.79C42.1936 316.409 64.2601 312.373 81.3301 307.58C98.4235 302.78 110.766 297.156 119.919 288.442C129.095 279.708 134.866 268.062 139.22 251.632C143.565 235.236 146.549 213.867 150.016 185.545L150.02 185.51C150.771 178.329 155.517 173.764 161.909 173.764ZM365.45 2C367.547 2.00008 368.927 2.59986 369.922 3.52637C370.958 4.49124 371.761 5.98516 372.338 8.09277C375.999 25.457 378.646 38.7416 381.681 49.0332C384.726 59.3624 388.229 66.9322 393.75 72.7666C399.279 78.6093 406.653 82.5246 417.071 85.9062C427.464 89.2793 441.091 92.1833 459.252 95.8789L459.286 95.8857L459.32 95.8916C461.541 96.2643 463.084 97.0655 464.068 98.1318C465.032 99.1764 465.641 100.67 465.641 102.804C465.641 104.939 465.032 106.432 464.068 107.477C463.084 108.543 461.541 109.343 459.32 109.715L459.298 109.719L459.276 109.724C441.013 113.208 427.227 115.952 416.684 119.218C406.117 122.491 398.588 126.349 392.972 132.196C387.359 138.04 383.84 145.676 380.904 156.124C377.98 166.529 375.572 179.967 372.331 197.537C371.754 199.633 370.954 201.12 369.922 202.082C368.927 203.009 367.547 203.608 365.45 203.608C363.352 203.608 361.972 203.008 360.978 202.082C359.946 201.121 359.144 199.634 358.567 197.537C355.325 179.967 352.918 166.58 349.993 156.239C347.056 145.854 343.536 138.297 337.92 132.507C332.304 126.717 324.78 122.887 314.223 119.576C303.687 116.273 289.905 113.423 271.646 109.728L271.627 109.724L271.608 109.721L271.237 109.646C269.409 109.253 267.959 108.488 266.963 107.449C265.928 106.369 265.259 104.867 265.259 102.804C265.259 100.741 265.928 99.2394 266.963 98.1592C268.025 97.0506 269.605 96.2525 271.608 95.8857L271.627 95.8828L271.646 95.8789C289.911 92.1833 303.592 89.2803 314.004 85.9072C324.443 82.5256 331.807 78.6087 337.311 72.7627C342.806 66.9259 346.269 59.3539 349.28 49.0273C352.281 38.7387 354.901 25.4537 358.562 8.09277C359.139 5.98472 359.942 4.49113 360.978 3.52637C361.972 2.6 363.352 2 365.45 2Z" fill="#D1D4FD" stroke="#0B1215" stroke-width="4"/>
</svg>
